<svg width="224" height="60" viewBox="0 0 224 60" fill="none" xmlns="http://www.w3.org/2000/svg">
<g clip-path="url(#clip0)">
<ellipse cx="30" cy="31.5" rx="25" ry="23.5" fill="#DCDBDB"/>
<path d="M37.4097 14C34.1206 14 31.3137 16.3567 30.2622 19.5123H16.9922C16.6983 19.5123 16.4597 19.8033 16.4576 20.1258L16.3312 40.721H12.5487C12.2535 40.721 12 40.9558 12 41.2806V43.8941C12.0068 46.3546 13.7715 48.3759 16.0099 48.4871V48.5H32.5172V48.4828C32.6508 48.4882 32.7059 48.5 32.7905 48.5H32.802C35.1186 48.496 36.9949 46.4326 36.9949 43.8887V30.6745C37.1285 30.6825 37.27 30.6868 37.4084 30.6868C41.594 30.6868 45 26.9395 45 22.3431C45 17.747 41.5955 14 37.4097 14ZM16.2132 47.3258H16.2098C14.4803 47.3232 13.0771 45.7876 13.0693 43.8881V41.8952H28.5741V43.8798C28.5749 45.105 29.0206 46.2795 29.8121 47.1432C29.8682 47.2048 29.9379 47.2524 29.9967 47.3258H16.2132ZM35.9256 43.8881C35.9258 45.7841 34.5279 47.3221 32.8015 47.3258H32.7913C31.0579 47.3224 29.6521 45.7835 29.6434 43.8804V41.2806C29.6479 41.1304 29.5957 40.985 29.4988 40.879C29.402 40.7729 29.2696 40.7159 29.1331 40.721H17.4005L17.5232 20.6865H29.9653C29.8706 21.224 29.8215 21.7698 29.8189 22.317C29.8178 23.4743 30.0376 24.6187 30.4642 25.6768H25.4143C25.1188 25.6768 24.8796 25.9396 24.8796 26.2639C24.8796 26.5881 25.1188 26.851 25.4143 26.851H31.0443C32.1473 28.7556 33.9105 30.0834 35.9256 30.5277V43.8881ZM37.4097 29.5129C33.8081 29.5129 30.8882 26.3069 30.8884 22.3517C30.8884 18.3966 33.8081 15.1905 37.41 15.1905C41.0115 15.1905 43.9312 18.3969 43.9312 22.3517C43.9273 26.3049 41.01 29.5086 37.4097 29.5129Z" fill="black"/>
<path d="M21.9824 29.5841C21.0386 29.5841 20.2711 30.4002 20.2711 31.4035C20.2711 32.4069 21.0386 33.223 21.9824 33.223C22.9261 33.223 23.6939 32.4069 23.6939 31.4035C23.6939 30.4002 22.9261 29.5841 21.9824 29.5841ZM21.9824 32.0488C21.6281 32.0488 21.3404 31.7593 21.3404 31.4035C21.3404 31.0475 21.6284 30.7582 21.9824 30.7582C22.3364 30.7582 22.6246 31.0478 22.6246 31.4035C22.6246 31.7593 22.3364 32.0488 21.9824 32.0488Z" fill="black"/>
<path d="M24.8796 31.4009C24.8796 31.7252 25.1187 31.988 25.4142 31.988H32.5422C32.8375 31.988 33.0769 31.7252 33.0769 31.4009C33.0769 31.0767 32.8375 30.8139 32.5422 30.8139H25.4142C25.1187 30.8139 24.8796 31.0767 24.8796 31.4009Z" fill="black"/>
<path d="M21.9824 24.4805C21.0386 24.4805 20.2711 25.2969 20.2711 26.3003C20.2711 27.3036 21.0386 28.1198 21.9824 28.1198C22.9261 28.1198 23.6939 27.3036 23.6939 26.3003C23.6939 25.2969 22.9261 24.4805 21.9824 24.4805ZM21.9824 26.9456C21.6281 26.9456 21.3404 26.656 21.3404 26.3003C21.3404 25.9445 21.6284 25.6547 21.9824 25.6547C22.3364 25.6547 22.6246 25.9442 22.6246 26.3003C22.6246 26.656 22.3364 26.9459 21.9824 26.9459V26.9456Z" fill="black"/>
<path d="M21.9824 34.687C21.0386 34.687 20.2711 35.5031 20.2711 36.5065C20.2711 37.5098 21.0386 38.3259 21.9824 38.3259C22.9261 38.3259 23.6939 37.5098 23.6939 36.5065C23.6939 35.5031 22.9261 34.687 21.9824 34.687ZM21.9824 37.1518C21.6281 37.1518 21.3404 36.8625 21.3404 36.5065C21.3404 36.1507 21.6284 35.8612 21.9824 35.8612C22.3364 35.8612 22.6246 36.1507 22.6246 36.5065C22.6246 36.8622 22.3364 37.1518 21.9824 37.1518Z" fill="black"/>
<path d="M32.5422 35.9509H25.4142C25.1187 35.9509 24.8796 36.2138 24.8796 36.538C24.8796 36.8622 25.1187 37.1251 25.4142 37.1251H32.5422C32.8375 37.1251 33.0769 36.8622 33.0769 36.538C33.0769 36.2138 32.8375 35.9509 32.5422 35.9509Z" fill="black"/>
<path d="M37.0737 19.7092C37.4465 18.7385 38.2982 18.0603 39.2889 18.0603C40.6233 18.0603 41.5844 19.3142 41.7052 20.8086C41.7052 20.8086 41.7704 21.1796 41.6269 21.8474C41.4314 22.757 40.9719 23.5651 40.3525 24.1818L37.0737 27.395L33.8502 24.1816C33.2307 23.5651 32.7713 22.7568 32.5758 21.8472C32.4323 21.1794 32.4975 20.8084 32.4975 20.8084C32.6183 19.314 33.5794 18.0601 34.9138 18.0601C35.9046 18.0601 36.7009 18.7385 37.0737 19.7092Z" fill="#D75A4A"/>
<g opacity="0.5" filter="url(#filter0_d)">
<path d="M78.776 23.2V40H77.312L66.512 26.368V40H64.736V23.2H66.2L77.024 36.832V23.2H78.776ZM89.0594 40.12C87.8434 40.12 86.7474 39.848 85.7714 39.304C84.7954 38.744 84.0274 37.976 83.4674 37C82.9074 36.024 82.6274 34.92 82.6274 33.688C82.6274 32.456 82.9074 31.352 83.4674 30.376C84.0274 29.4 84.7954 28.64 85.7714 28.096C86.7474 27.552 87.8434 27.28 89.0594 27.28C90.2754 27.28 91.3714 27.552 92.3474 28.096C93.3234 28.64 94.0834 29.4 94.6274 30.376C95.1874 31.352 95.4674 32.456 95.4674 33.688C95.4674 34.92 95.1874 36.024 94.6274 37C94.0834 37.976 93.3234 38.744 92.3474 39.304C91.3714 39.848 90.2754 40.12 89.0594 40.12ZM89.0594 38.608C89.9554 38.608 90.7554 38.408 91.4594 38.008C92.1794 37.592 92.7394 37.008 93.1394 36.256C93.5394 35.504 93.7394 34.648 93.7394 33.688C93.7394 32.728 93.5394 31.872 93.1394 31.12C92.7394 30.368 92.1794 29.792 91.4594 29.392C90.7554 28.976 89.9554 28.768 89.0594 28.768C88.1634 28.768 87.3554 28.976 86.6354 29.392C85.9314 29.792 85.3714 30.368 84.9554 31.12C84.5554 31.872 84.3554 32.728 84.3554 33.688C84.3554 34.648 84.5554 35.504 84.9554 36.256C85.3714 37.008 85.9314 37.592 86.6354 38.008C87.3554 38.408 88.1634 38.608 89.0594 38.608ZM105.594 39.232C105.274 39.52 104.874 39.744 104.394 39.904C103.93 40.048 103.442 40.12 102.93 40.12C101.746 40.12 100.834 39.8 100.194 39.16C99.5543 38.52 99.2343 37.616 99.2343 36.448V28.816H96.9783V27.376H99.2343V24.616H100.938V27.376H104.778V28.816H100.938V36.352C100.938 37.104 101.122 37.68 101.49 38.08C101.874 38.464 102.418 38.656 103.122 38.656C103.474 38.656 103.81 38.6 104.13 38.488C104.466 38.376 104.754 38.216 104.994 38.008L105.594 39.232ZM113.112 27.28C114.76 27.28 116.024 27.696 116.904 28.528C117.784 29.344 118.224 30.56 118.224 32.176V40H116.592V38.032C116.208 38.688 115.64 39.2 114.888 39.568C114.152 39.936 113.272 40.12 112.248 40.12C110.84 40.12 109.72 39.784 108.888 39.112C108.056 38.44 107.64 37.552 107.64 36.448C107.64 35.376 108.024 34.512 108.792 33.856C109.576 33.2 110.816 32.872 112.512 32.872H116.52V32.104C116.52 31.016 116.216 30.192 115.608 29.632C115 29.056 114.112 28.768 112.944 28.768C112.144 28.768 111.376 28.904 110.64 29.176C109.904 29.432 109.272 29.792 108.744 30.256L107.976 28.984C108.616 28.44 109.384 28.024 110.28 27.736C111.176 27.432 112.12 27.28 113.112 27.28ZM112.512 38.776C113.472 38.776 114.296 38.56 114.984 38.128C115.672 37.68 116.184 37.04 116.52 36.208V34.144H112.56C110.4 34.144 109.32 34.896 109.32 36.4C109.32 37.136 109.6 37.72 110.16 38.152C110.72 38.568 111.504 38.776 112.512 38.776ZM140.03 35.512H130.67L128.654 40H126.806L134.486 23.2H136.238L143.918 40H142.046L140.03 35.512ZM139.382 34.072L135.35 25.048L131.318 34.072H139.382ZM162.081 27.28C163.665 27.28 164.905 27.736 165.801 28.648C166.713 29.56 167.169 30.904 167.169 32.68V40H165.465V32.848C165.465 31.536 165.145 30.536 164.505 29.848C163.881 29.16 162.993 28.816 161.841 28.816C160.529 28.816 159.497 29.224 158.745 30.04C157.993 30.84 157.617 31.952 157.617 33.376V40H155.913V32.848C155.913 31.536 155.593 30.536 154.953 29.848C154.329 29.16 153.433 28.816 152.265 28.816C150.969 28.816 149.937 29.224 149.169 30.04C148.417 30.84 148.041 31.952 148.041 33.376V40H146.337V27.376H147.969V29.68C148.417 28.912 149.041 28.32 149.841 27.904C150.641 27.488 151.561 27.28 152.601 27.28C153.657 27.28 154.569 27.504 155.337 27.952C156.121 28.4 156.705 29.064 157.089 29.944C157.553 29.112 158.217 28.464 159.081 28C159.961 27.52 160.961 27.28 162.081 27.28ZM171.79 27.376H173.494V40H171.79V27.376ZM172.654 24.616C172.302 24.616 172.006 24.496 171.766 24.256C171.526 24.016 171.406 23.728 171.406 23.392C171.406 23.072 171.526 22.792 171.766 22.552C172.006 22.312 172.302 22.192 172.654 22.192C173.006 22.192 173.302 22.312 173.542 22.552C173.782 22.776 173.902 23.048 173.902 23.368C173.902 23.72 173.782 24.016 173.542 24.256C173.302 24.496 173.006 24.616 172.654 24.616ZM189.923 27.376V38.464C189.923 40.608 189.395 42.192 188.339 43.216C187.299 44.256 185.723 44.776 183.611 44.776C182.443 44.776 181.331 44.6 180.275 44.248C179.235 43.912 178.387 43.44 177.731 42.832L178.595 41.536C179.203 42.08 179.939 42.504 180.803 42.808C181.683 43.112 182.603 43.264 183.563 43.264C185.163 43.264 186.339 42.888 187.091 42.136C187.843 41.4 188.219 40.248 188.219 38.68V37.072C187.691 37.872 186.995 38.48 186.131 38.896C185.283 39.312 184.339 39.52 183.299 39.52C182.115 39.52 181.035 39.264 180.059 38.752C179.099 38.224 178.339 37.496 177.779 36.568C177.235 35.624 176.963 34.56 176.963 33.376C176.963 32.192 177.235 31.136 177.779 30.208C178.339 29.28 179.099 28.56 180.059 28.048C181.019 27.536 182.099 27.28 183.299 27.28C184.371 27.28 185.339 27.496 186.203 27.928C187.067 28.36 187.763 28.984 188.291 29.8V27.376H189.923ZM183.467 38.008C184.379 38.008 185.203 37.816 185.939 37.432C186.675 37.032 187.243 36.48 187.643 35.776C188.059 35.072 188.267 34.272 188.267 33.376C188.267 32.48 188.059 31.688 187.643 31C187.243 30.296 186.675 29.752 185.939 29.368C185.219 28.968 184.395 28.768 183.467 28.768C182.555 28.768 181.731 28.96 180.995 29.344C180.275 29.728 179.707 30.272 179.291 30.976C178.891 31.68 178.691 32.48 178.691 33.376C178.691 34.272 178.891 35.072 179.291 35.776C179.707 36.48 180.275 37.032 180.995 37.432C181.731 37.816 182.555 38.008 183.467 38.008ZM199.105 27.28C200.753 27.28 202.017 27.696 202.897 28.528C203.777 29.344 204.217 30.56 204.217 32.176V40H202.585V38.032C202.201 38.688 201.633 39.2 200.881 39.568C200.145 39.936 199.265 40.12 198.241 40.12C196.833 40.12 195.713 39.784 194.881 39.112C194.049 38.44 193.633 37.552 193.633 36.448C193.633 35.376 194.017 34.512 194.785 33.856C195.569 33.2 196.809 32.872 198.505 32.872H202.513V32.104C202.513 31.016 202.209 30.192 201.601 29.632C200.993 29.056 200.105 28.768 198.937 28.768C198.137 28.768 197.369 28.904 196.633 29.176C195.897 29.432 195.265 29.792 194.737 30.256L193.969 28.984C194.609 28.44 195.377 28.024 196.273 27.736C197.169 27.432 198.113 27.28 199.105 27.28ZM198.505 38.776C199.465 38.776 200.289 38.56 200.977 38.128C201.665 37.68 202.177 37.04 202.513 36.208V34.144H198.553C196.393 34.144 195.312 34.896 195.312 36.4C195.312 37.136 195.593 37.72 196.153 38.152C196.713 38.568 197.497 38.776 198.505 38.776Z" fill="white"/>
<path d="M78.776 23.2H79.276V22.7H78.776V23.2ZM78.776 40V40.5H79.276V40H78.776ZM77.312 40L76.9201 40.3105L77.0702 40.5H77.312V40ZM66.512 26.368L66.9039 26.0575L66.012 24.9317V26.368H66.512ZM66.512 40V40.5H67.012V40H66.512ZM64.736 40H64.236V40.5H64.736V40ZM64.736 23.2V22.7H64.236V23.2H64.736ZM66.2 23.2L66.5916 22.8891L66.4414 22.7H66.2V23.2ZM77.024 36.832L76.6324 37.1429L77.524 38.2658V36.832H77.024ZM77.024 23.2V22.7H76.524V23.2H77.024ZM78.276 23.2V40H79.276V23.2H78.276ZM78.776 39.5H77.312V40.5H78.776V39.5ZM77.7039 39.6895L66.9039 26.0575L66.1201 26.6785L76.9201 40.3105L77.7039 39.6895ZM66.012 26.368V40H67.012V26.368H66.012ZM66.512 39.5H64.736V40.5H66.512V39.5ZM65.236 40V23.2H64.236V40H65.236ZM64.736 23.7H66.2V22.7H64.736V23.7ZM65.8084 23.5109L76.6324 37.1429L77.4156 36.5211L66.5916 22.8891L65.8084 23.5109ZM77.524 36.832V23.2H76.524V36.832H77.524ZM77.024 23.7H78.776V22.7H77.024V23.7ZM85.7714 39.304L85.5226 39.7377L85.528 39.7407L85.7714 39.304ZM83.4674 37L83.0338 37.2488L83.4674 37ZM83.4674 30.376L83.0338 30.1272L83.4674 30.376ZM85.7714 28.096L85.528 27.6593L85.7714 28.096ZM92.3474 28.096L92.5909 27.6593L92.3474 28.096ZM94.6274 30.376L94.1907 30.6194L94.1938 30.6248L94.6274 30.376ZM94.6274 37L94.1937 36.7511L94.1907 36.7566L94.6274 37ZM92.3474 39.304L92.5909 39.7408L92.5963 39.7377L92.3474 39.304ZM91.4594 38.008L91.7064 38.4427L91.7096 38.4409L91.4594 38.008ZM93.1394 36.256L93.5809 36.4908H93.5809L93.1394 36.256ZM93.1394 31.12L93.5809 30.8852L93.1394 31.12ZM91.4594 29.392L91.205 29.8226L91.2166 29.8291L91.4594 29.392ZM86.6354 29.392L86.8824 29.8267L86.8856 29.8249L86.6354 29.392ZM84.9554 31.12L84.5179 30.8779L84.514 30.8852L84.9554 31.12ZM84.9554 36.256L84.5139 36.4908L84.5179 36.498L84.9554 36.256ZM86.6354 38.008L86.381 38.4386L86.3926 38.4451L86.6354 38.008ZM89.0594 39.62C87.9209 39.62 86.91 39.3662 86.0149 38.8673L85.528 39.7407C86.5849 40.3298 87.766 40.62 89.0594 40.62V39.62ZM86.0203 38.8703C85.1212 38.3545 84.417 37.6502 83.9011 36.7512L83.0338 37.2488C83.6379 38.3018 84.4697 39.1336 85.5226 39.7377L86.0203 38.8703ZM83.9011 36.7512C83.3886 35.858 83.1274 34.8412 83.1274 33.688H82.1274C82.1274 34.9988 82.4263 36.19 83.0338 37.2488L83.9011 36.7512ZM83.1274 33.688C83.1274 32.5348 83.3886 31.518 83.9011 30.6248L83.0338 30.1272C82.4263 31.186 82.1274 32.3772 82.1274 33.688H83.1274ZM83.9011 30.6248C84.4163 29.727 85.1188 29.0322 86.0149 28.5327L85.528 27.6593C84.4721 28.2478 83.6386 29.073 83.0338 30.1272L83.9011 30.6248ZM86.0149 28.5327C86.91 28.0338 87.9209 27.78 89.0594 27.78V26.78C87.766 26.78 86.5849 27.0702 85.528 27.6593L86.0149 28.5327ZM89.0594 27.78C90.198 27.78 91.2089 28.0338 92.104 28.5327L92.5909 27.6593C91.534 27.0702 90.3529 26.78 89.0594 26.78V27.78ZM92.104 28.5327C92.9989 29.0315 93.6919 29.7246 94.1907 30.6194L95.0642 30.1326C94.4749 29.0754 93.648 28.2485 92.5909 27.6593L92.104 28.5327ZM94.1938 30.6248C94.7063 31.518 94.9674 32.5348 94.9674 33.688H95.9674C95.9674 32.3772 95.6686 31.186 95.0611 30.1272L94.1938 30.6248ZM94.9674 33.688C94.9674 34.8412 94.7063 35.858 94.1938 36.7512L95.0611 37.2488C95.6686 36.19 95.9674 34.9988 95.9674 33.688H94.9674ZM94.1907 36.7566C93.6912 37.6527 92.9964 38.3552 92.0986 38.8703L92.5963 39.7377C93.6504 39.1328 94.4757 38.2993 95.0642 37.2434L94.1907 36.7566ZM92.104 38.8673C91.2089 39.3662 90.198 39.62 89.0594 39.62V40.62C90.3529 40.62 91.534 40.3298 92.5909 39.7407L92.104 38.8673ZM89.0594 39.108C90.0326 39.108 90.9193 38.8899 91.7064 38.4427L91.2124 37.5733C90.5915 37.9261 89.8783 38.108 89.0594 38.108V39.108ZM91.7096 38.4409C92.5127 37.9769 93.138 37.3233 93.5809 36.4908L92.698 36.0212C92.3408 36.6927 91.8462 37.2071 91.2093 37.5751L91.7096 38.4409ZM93.5809 36.4908C94.024 35.6577 94.2394 34.7193 94.2394 33.688H93.2394C93.2394 34.5767 93.0549 35.3503 92.698 36.0212L93.5809 36.4908ZM94.2394 33.688C94.2394 32.6567 94.024 31.7183 93.5809 30.8852L92.698 31.3548C93.0549 32.0257 93.2394 32.7993 93.2394 33.688H94.2394ZM93.5809 30.8852C93.1372 30.0511 92.5096 29.4034 91.7023 28.9549L91.2166 29.8291C91.8493 30.1806 92.3417 30.6849 92.698 31.3548L93.5809 30.8852ZM91.7138 28.9615C90.9255 28.4957 90.0361 28.268 89.0594 28.268V29.268C89.8748 29.268 90.5854 29.4563 91.2051 29.8225L91.7138 28.9615ZM89.0594 28.268C88.0826 28.268 87.1872 28.4957 86.3853 28.9591L86.8856 29.8249C87.5237 29.4563 88.2442 29.268 89.0594 29.268V28.268ZM86.3884 28.9573C85.5994 29.4056 84.9756 30.0506 84.5179 30.878L85.393 31.362C85.7673 30.6854 86.2634 30.1784 86.8824 29.8267L86.3884 28.9573ZM84.514 30.8852C84.0709 31.7183 83.8554 32.6567 83.8554 33.688H84.8554C84.8554 32.7993 85.04 32.0257 85.3969 31.3548L84.514 30.8852ZM83.8554 33.688C83.8554 34.7193 84.0709 35.6577 84.514 36.4908L85.3969 36.0212C85.04 35.3503 84.8554 34.5767 84.8554 33.688H83.8554ZM84.5179 36.498C84.9748 37.3239 85.5963 37.9748 86.3811 38.4385L86.8898 37.5775C86.2665 37.2092 85.7681 36.6921 85.393 36.014L84.5179 36.498ZM86.3926 38.4451C87.1933 38.8899 88.0861 39.108 89.0594 39.108V38.108C88.2407 38.108 87.5176 37.9261 86.8783 37.5709L86.3926 38.4451ZM105.594 39.232L105.929 39.6036L106.209 39.351L106.043 39.0119L105.594 39.232ZM104.394 39.904L104.543 40.3816L104.552 40.3783L104.394 39.904ZM100.194 39.16L99.8408 39.5136L100.194 39.16ZM99.2343 28.816H99.7343V28.316H99.2343V28.816ZM96.9783 28.816H96.4783V29.316H96.9783V28.816ZM96.9783 27.376V26.876H96.4783V27.376H96.9783ZM99.2343 27.376V27.876H99.7343V27.376H99.2343ZM99.2343 24.616V24.116H98.7343V24.616H99.2343ZM100.938 24.616H101.438V24.116H100.938V24.616ZM100.938 27.376H100.438V27.876H100.938V27.376ZM104.778 27.376H105.278V26.876H104.778V27.376ZM104.778 28.816V29.316H105.278V28.816H104.778ZM100.938 28.816V28.316H100.438V28.816H100.938ZM101.49 38.08L101.122 38.4185L101.129 38.4262L101.137 38.4336L101.49 38.08ZM104.13 38.488L103.972 38.0136L103.965 38.0161L104.13 38.488ZM104.994 38.008L105.443 37.7879L105.157 37.2049L104.667 37.6302L104.994 38.008ZM105.26 38.8604C104.999 39.095 104.662 39.2876 104.236 39.4297L104.552 40.3783C105.086 40.2004 105.55 39.945 105.929 39.6036L105.26 38.8604ZM104.246 39.4265C103.833 39.5548 103.395 39.62 102.93 39.62V40.62C103.49 40.62 104.028 40.5412 104.543 40.3815L104.246 39.4265ZM102.93 39.62C101.836 39.62 101.068 39.3264 100.548 38.8064L99.8408 39.5136C100.601 40.2736 101.656 40.62 102.93 40.62V39.62ZM100.548 38.8064C100.027 38.2853 99.7343 37.5236 99.7343 36.448H98.7343C98.7343 37.7084 99.0819 38.7547 99.8408 39.5136L100.548 38.8064ZM99.7343 36.448V28.816H98.7343V36.448H99.7343ZM99.2343 28.316H96.9783V29.316H99.2343V28.316ZM97.4783 28.816V27.376H96.4783V28.816H97.4783ZM96.9783 27.876H99.2343V26.876H96.9783V27.876ZM99.7343 27.376V24.616H98.7343V27.376H99.7343ZM99.2343 25.116H100.938V24.116H99.2343V25.116ZM100.438 24.616V27.376H101.438V24.616H100.438ZM100.938 27.876H104.778V26.876H100.938V27.876ZM104.278 27.376V28.816H105.278V27.376H104.278ZM104.778 28.316H100.938V29.316H104.778V28.316ZM100.438 28.816V36.352H101.438V28.816H100.438ZM100.438 36.352C100.438 37.181 100.642 37.8959 101.122 38.4185L101.858 37.7415C101.603 37.4641 101.438 37.027 101.438 36.352H100.438ZM101.137 38.4336C101.64 38.9368 102.327 39.156 103.122 39.156V38.156C102.51 38.156 102.109 37.9912 101.844 37.7264L101.137 38.4336ZM103.122 39.156C103.528 39.156 103.92 39.0912 104.295 38.9599L103.965 38.0161C103.7 38.1088 103.42 38.156 103.122 38.156V39.156ZM104.288 38.9623C104.679 38.832 105.027 38.6415 105.322 38.3858L104.667 37.6302C104.482 37.7905 104.253 37.92 103.972 38.0137L104.288 38.9623ZM104.545 38.2281L105.145 39.4521L106.043 39.0119L105.443 37.7879L104.545 38.2281ZM116.904 28.528L116.561 28.8913L116.564 28.8946L116.904 28.528ZM118.224 40V40.5H118.724V40H118.224ZM116.592 40H116.092V40.5H116.592V40ZM116.592 38.032H117.092V36.1881L116.161 37.7794L116.592 38.032ZM114.888 39.568L114.669 39.1189L114.665 39.1208L114.888 39.568ZM108.888 39.112L109.202 38.723L108.888 39.112ZM108.792 33.856L108.471 33.4725L108.468 33.4758L108.792 33.856ZM116.52 32.872V33.372H117.02V32.872H116.52ZM115.608 29.632L115.264 29.995L115.27 29.9998L115.608 29.632ZM110.64 29.176L110.805 29.6483L110.814 29.645L110.64 29.176ZM108.744 30.256L108.316 30.5144L108.625 31.0262L109.074 30.6316L108.744 30.256ZM107.976 28.984L107.652 28.603L107.328 28.8784L107.548 29.2424L107.976 28.984ZM110.28 27.736L110.433 28.2121L110.441 28.2095L110.28 27.736ZM114.984 38.128L115.25 38.5515L115.257 38.547L114.984 38.128ZM116.52 36.208L116.984 36.3952L117.02 36.3051V36.208H116.52ZM116.52 34.144H117.02V33.644H116.52V34.144ZM110.16 38.152L109.855 38.548L109.862 38.5534L110.16 38.152ZM113.112 27.78C114.679 27.78 115.803 28.1747 116.561 28.8913L117.248 28.1647C116.246 27.2173 114.841 26.78 113.112 26.78V27.78ZM116.564 28.8946C117.311 29.5865 117.724 30.6489 117.724 32.176H118.724C118.724 30.4711 118.258 29.1015 117.244 28.1614L116.564 28.8946ZM117.724 32.176V40H118.724V32.176H117.724ZM118.224 39.5H116.592V40.5H118.224V39.5ZM117.092 40V38.032H116.092V40H117.092ZM116.161 37.7794C115.832 38.342 115.341 38.7896 114.669 39.1189L115.108 40.0171C115.939 39.6104 116.585 39.034 117.024 38.2846L116.161 37.7794ZM114.665 39.1208C114.013 39.4466 113.213 39.62 112.248 39.62V40.62C113.331 40.62 114.292 40.4254 115.112 40.0152L114.665 39.1208ZM112.248 39.62C110.918 39.62 109.921 39.3032 109.202 38.723L108.574 39.501C109.52 40.2648 110.762 40.62 112.248 40.62V39.62ZM109.202 38.723C108.492 38.1494 108.14 37.4066 108.14 36.448H107.14C107.14 37.6974 107.62 38.7306 108.574 39.501L109.202 38.723ZM108.14 36.448C108.14 35.512 108.468 34.7907 109.117 34.2362L108.468 33.4758C107.581 34.2333 107.14 35.24 107.14 36.448H108.14ZM109.113 34.2395C109.764 33.6945 110.862 33.372 112.512 33.372V32.372C110.77 32.372 109.388 32.7055 108.471 33.4725L109.113 34.2395ZM112.512 33.372H116.52V32.372H112.512V33.372ZM117.02 32.872V32.104H116.02V32.872H117.02ZM117.02 32.104C117.02 30.9227 116.688 29.9464 115.947 29.2642L115.27 29.9998C115.745 30.4376 116.02 31.1093 116.02 32.104H117.02ZM115.952 29.269C115.22 28.5754 114.189 28.268 112.944 28.268V29.268C114.035 29.268 114.781 29.5366 115.264 29.995L115.952 29.269ZM112.944 28.268C112.086 28.268 111.26 28.4141 110.467 28.707L110.814 29.645C111.493 29.3939 112.202 29.268 112.944 29.268V28.268ZM110.476 28.7038C109.686 28.9787 108.996 29.3694 108.414 29.8804L109.074 30.6316C109.549 30.2146 110.123 29.8853 110.805 29.6482L110.476 28.7038ZM109.172 29.9976L108.404 28.7256L107.548 29.2424L108.316 30.5144L109.172 29.9976ZM108.3 29.365C108.884 28.8684 109.592 28.4823 110.433 28.212L110.127 27.26C109.176 27.5657 108.348 28.0116 107.652 28.603L108.3 29.365ZM110.441 28.2095C111.283 27.9239 112.172 27.78 113.112 27.78V26.78C112.068 26.78 111.07 26.9401 110.12 27.2625L110.441 28.2095ZM112.512 39.276C113.549 39.276 114.469 39.0419 115.25 38.5514L114.718 37.7046C114.124 38.0781 113.396 38.276 112.512 38.276V39.276ZM115.257 38.547C116.039 38.0379 116.613 37.313 116.984 36.3952L116.057 36.0208C115.755 36.767 115.306 37.3221 114.711 37.709L115.257 38.547ZM117.02 36.208V34.144H116.02V36.208H117.02ZM116.52 33.644H112.56V34.644H116.52V33.644ZM112.56 33.644C111.438 33.644 110.507 33.8366 109.845 34.2977C109.15 34.7816 108.82 35.5114 108.82 36.4H109.82C109.82 35.7846 110.031 35.3864 110.416 35.1183C110.834 34.8274 111.523 34.644 112.56 34.644V33.644ZM108.82 36.4C108.82 37.2836 109.166 38.0168 109.855 38.5479L110.466 37.7561C110.034 37.4232 109.82 36.9883 109.82 36.4H108.82ZM109.862 38.5534C110.539 39.0563 111.443 39.276 112.512 39.276V38.276C111.566 38.276 110.901 38.0797 110.458 37.7506L109.862 38.5534ZM140.03 35.512L140.486 35.3071L140.353 35.012H140.03V35.512ZM130.67 35.512V35.012H130.346L130.214 35.3071L130.67 35.512ZM128.654 40V40.5H128.977L129.11 40.2049L128.654 40ZM126.806 40L126.351 39.7921L126.027 40.5H126.806V40ZM134.486 23.2V22.7H134.165L134.031 22.9921L134.486 23.2ZM136.238 23.2L136.693 22.9921L136.559 22.7H136.238V23.2ZM143.918 40V40.5H144.696L144.373 39.7921L143.918 40ZM142.046 40L141.59 40.2049L141.722 40.5H142.046V40ZM139.382 34.072V34.572H140.153L139.838 33.868L139.382 34.072ZM135.35 25.048L135.806 24.844L135.35 23.8223L134.893 24.844L135.35 25.048ZM131.318 34.072L130.861 33.868L130.547 34.572H131.318V34.072ZM140.03 35.012H130.67V36.012H140.03V35.012ZM130.214 35.3071L128.198 39.7951L129.11 40.2049L131.126 35.7169L130.214 35.3071ZM128.654 39.5H126.806V40.5H128.654V39.5ZM127.261 40.2079L134.941 23.4079L134.031 22.9921L126.351 39.7921L127.261 40.2079ZM134.486 23.7H136.238V22.7H134.486V23.7ZM135.783 23.4079L143.463 40.2079L144.373 39.7921L136.693 22.9921L135.783 23.4079ZM143.918 39.5H142.046V40.5H143.918V39.5ZM142.502 39.7951L140.486 35.3071L139.574 35.7169L141.59 40.2049L142.502 39.7951ZM139.838 33.868L135.806 24.844L134.893 25.252L138.925 34.276L139.838 33.868ZM134.893 24.844L130.861 33.868L131.774 34.276L135.806 25.252L134.893 24.844ZM131.318 34.572H139.382V33.572H131.318V34.572ZM165.801 28.648L165.444 28.9984L165.447 29.0016L165.801 28.648ZM167.169 40V40.5H167.669V40H167.169ZM165.465 40H164.965V40.5H165.465V40ZM164.505 29.848L164.135 30.1839L164.139 30.1886L164.505 29.848ZM158.745 30.04L159.109 30.3825L159.113 30.3788L158.745 30.04ZM157.617 40V40.5H158.117V40H157.617ZM155.913 40H155.413V40.5H155.913V40ZM154.953 29.848L154.583 30.1839L154.587 30.1886L154.953 29.848ZM149.169 30.04L148.805 29.6973L148.805 29.6975L149.169 30.04ZM148.041 40V40.5H148.541V40H148.041ZM146.337 40H145.837V40.5H146.337V40ZM146.337 27.376V26.876H145.837V27.376H146.337ZM147.969 27.376H148.469V26.876H147.969V27.376ZM147.969 29.68H147.469V31.5295L148.401 29.9319L147.969 29.68ZM149.841 27.904L150.072 28.3476L149.841 27.904ZM155.337 27.952L155.085 28.3839L155.089 28.3861L155.337 27.952ZM157.089 29.944L156.631 30.144L157.034 31.0687L157.526 30.1875L157.089 29.944ZM159.081 28L159.318 28.4405L159.32 28.4389L159.081 28ZM162.081 27.78C163.565 27.78 164.664 28.2039 165.444 28.9984L166.158 28.2976C165.146 27.2681 163.765 26.78 162.081 26.78V27.78ZM165.447 29.0016C166.235 29.789 166.669 30.9856 166.669 32.68H167.669C167.669 30.8224 167.191 29.331 166.154 28.2944L165.447 29.0016ZM166.669 32.68V40H167.669V32.68H166.669ZM167.169 39.5H165.465V40.5H167.169V39.5ZM165.965 40V32.848H164.965V40H165.965ZM165.965 32.848C165.965 31.46 165.626 30.3192 164.871 29.5074L164.139 30.1886C164.664 30.7528 164.965 31.612 164.965 32.848H165.965ZM164.875 29.5121C164.135 28.6953 163.098 28.316 161.841 28.316V29.316C162.888 29.316 163.627 29.6247 164.135 30.1839L164.875 29.5121ZM161.841 28.316C160.417 28.316 159.241 28.7637 158.377 29.7012L159.113 30.3788C159.753 29.6843 160.641 29.316 161.841 29.316V28.316ZM158.381 29.6975C157.518 30.6153 157.117 31.8638 157.117 33.376H158.117C158.117 32.0402 158.468 31.0647 159.109 30.3825L158.381 29.6975ZM157.117 33.376V40H158.117V33.376H157.117ZM157.617 39.5H155.913V40.5H157.617V39.5ZM156.413 40V32.848H155.413V40H156.413ZM156.413 32.848C156.413 31.46 156.074 30.3192 155.319 29.5074L154.587 30.1886C155.112 30.7528 155.413 31.612 155.413 32.848H156.413ZM155.323 29.5121C154.581 28.6939 153.535 28.316 152.265 28.316V29.316C153.331 29.316 154.077 29.6261 154.583 30.1839L155.323 29.5121ZM152.265 28.316C150.855 28.316 149.682 28.7649 148.805 29.6973L149.533 30.3827C150.192 29.6831 151.083 29.316 152.265 29.316V28.316ZM148.805 29.6975C147.942 30.6153 147.541 31.8638 147.541 33.376H148.541C148.541 32.0402 148.892 31.0647 149.533 30.3825L148.805 29.6975ZM147.541 33.376V40H148.541V33.376H147.541ZM148.041 39.5H146.337V40.5H148.041V39.5ZM146.837 40V27.376H145.837V40H146.837ZM146.337 27.876H147.969V26.876H146.337V27.876ZM147.469 27.376V29.68H148.469V27.376H147.469ZM148.401 29.9319C148.801 29.2468 149.354 28.7207 150.072 28.3476L149.61 27.4604C148.728 27.9193 148.033 28.5772 147.537 29.4281L148.401 29.9319ZM150.072 28.3476C150.79 27.974 151.629 27.78 152.601 27.78V26.78C151.493 26.78 150.492 27.002 149.61 27.4604L150.072 28.3476ZM152.601 27.78C153.585 27.78 154.407 27.9882 155.085 28.3839L155.589 27.5201C154.731 27.0198 153.729 26.78 152.601 26.78V27.78ZM155.089 28.3861C155.773 28.7772 156.287 29.356 156.631 30.144L157.547 29.744C157.123 28.772 156.469 28.0228 155.585 27.5179L155.089 28.3861ZM157.526 30.1875C157.942 29.4415 158.535 28.8607 159.318 28.4405L158.844 27.5595C157.899 28.0673 157.164 28.7825 156.652 29.7005L157.526 30.1875ZM159.32 28.4389C160.119 28.0035 161.035 27.78 162.081 27.78V26.78C160.887 26.78 159.803 27.0365 158.842 27.5611L159.32 28.4389ZM171.79 27.376V26.876H171.29V27.376H171.79ZM173.494 27.376H173.994V26.876H173.494V27.376ZM173.494 40V40.5H173.994V40H173.494ZM171.79 40H171.29V40.5H171.79V40ZM171.766 22.552L171.413 22.1984V22.1984L171.766 22.552ZM173.542 22.552L173.189 22.9056L173.195 22.9116L173.201 22.9175L173.542 22.552ZM171.79 27.876H173.494V26.876H171.79V27.876ZM172.994 27.376V40H173.994V27.376H172.994ZM173.494 39.5H171.79V40.5H173.494V39.5ZM172.29 40V27.376H171.29V40H172.29ZM172.654 24.116C172.429 24.116 172.262 24.0449 172.12 23.9024L171.413 24.6096C171.75 24.9471 172.175 25.116 172.654 25.116V24.116ZM172.12 23.9024C171.972 23.7551 171.906 23.5939 171.906 23.392H170.906C170.906 23.8621 171.08 24.2769 171.413 24.6096L172.12 23.9024ZM171.906 23.392C171.906 23.2133 171.967 23.0581 172.12 22.9056L171.413 22.1984C171.085 22.5259 170.906 22.9307 170.906 23.392H171.906ZM172.12 22.9056C172.262 22.7631 172.429 22.692 172.654 22.692V21.692C172.175 21.692 171.75 21.8609 171.413 22.1984L172.12 22.9056ZM172.654 22.692C172.879 22.692 173.046 22.7631 173.189 22.9056L173.896 22.1984C173.558 21.8609 173.133 21.692 172.654 21.692V22.692ZM173.201 22.9175C173.343 23.0497 173.402 23.1906 173.402 23.368H174.402C174.402 22.9054 174.222 22.5023 173.883 22.1865L173.201 22.9175ZM173.402 23.368C173.402 23.5929 173.331 23.76 173.189 23.9024L173.896 24.6096C174.233 24.272 174.402 23.8471 174.402 23.368H173.402ZM173.189 23.9024C173.046 24.0449 172.879 24.116 172.654 24.116V25.116C173.133 25.116 173.558 24.9471 173.896 24.6096L173.189 23.9024ZM189.923 27.376H190.423V26.876H189.923V27.376ZM188.339 43.216L187.991 42.857L187.986 42.8624L188.339 43.216ZM180.275 44.248L180.433 43.7736L180.429 43.7722L180.275 44.248ZM177.731 42.832L177.315 42.5546L177.079 42.9091L177.391 43.1987L177.731 42.832ZM178.595 41.536L178.929 41.1634L178.499 40.779L178.179 41.2586L178.595 41.536ZM180.803 42.808L180.637 43.2797L180.64 43.2806L180.803 42.808ZM187.091 42.136L186.742 41.7786L186.738 41.7824L187.091 42.136ZM188.219 37.072H188.719V35.4067L187.802 36.7966L188.219 37.072ZM186.131 38.896L185.914 38.4455L185.911 38.4471L186.131 38.896ZM180.059 38.752L179.818 39.1902L179.827 39.1948L180.059 38.752ZM177.779 36.568L177.346 36.8177L177.351 36.8263L177.779 36.568ZM177.779 30.208L177.351 29.9496L177.348 29.9551L177.779 30.208ZM180.059 28.048L180.295 28.4892L180.059 28.048ZM186.203 27.928L186.427 27.4808L186.203 27.928ZM188.291 29.8L187.872 30.0716L188.791 31.4931V29.8H188.291ZM188.291 27.376V26.876H187.791V27.376H188.291ZM185.939 37.432L186.171 37.8754L186.178 37.8713L185.939 37.432ZM187.643 35.776L187.213 35.5216L187.209 35.529L187.643 35.776ZM187.643 31L187.208 31.2471L187.216 31.2587L187.643 31ZM185.939 29.368L185.696 29.8052L185.708 29.8113L185.939 29.368ZM180.995 29.344L180.764 28.9007L180.76 28.9028L180.995 29.344ZM179.291 30.976L178.861 30.7216L178.857 30.729L179.291 30.976ZM179.291 35.776L178.857 36.023L178.861 36.0304L179.291 35.776ZM180.995 37.432L180.752 37.8692L180.764 37.8753L180.995 37.432ZM189.423 27.376V38.464H190.423V27.376H189.423ZM189.423 38.464C189.423 40.5349 188.913 41.9631 187.991 42.857L188.687 43.575C189.878 42.4209 190.423 40.6811 190.423 38.464H189.423ZM187.986 42.8624C187.074 43.7743 185.649 44.276 183.611 44.276V45.276C185.798 45.276 187.525 44.7377 188.693 43.5696L187.986 42.8624ZM183.611 44.276C182.494 44.276 181.436 44.1078 180.433 43.7737L180.117 44.7223C181.227 45.0922 182.392 45.276 183.611 45.276V44.276ZM180.429 43.7722C179.443 43.4537 178.663 43.0141 178.071 42.4653L177.391 43.1987C178.111 43.8659 179.027 44.3703 180.122 44.7238L180.429 43.7722ZM178.147 43.1094L179.011 41.8134L178.179 41.2586L177.315 42.5546L178.147 43.1094ZM178.262 41.9086C178.924 42.5013 179.719 42.9566 180.637 43.2797L180.969 42.3363C180.16 42.0514 179.482 41.6587 178.929 41.1634L178.262 41.9086ZM180.64 43.2806C181.574 43.6033 182.55 43.764 183.563 43.764V42.764C182.657 42.764 181.792 42.6207 180.967 42.3354L180.64 43.2806ZM183.563 43.764C185.23 43.764 186.561 43.3735 187.445 42.4896L186.738 41.7824C186.118 42.4025 185.097 42.764 183.563 42.764V43.764ZM187.441 42.4933C188.328 41.6256 188.719 40.3169 188.719 38.68H187.719C187.719 40.1791 187.359 41.1744 186.742 41.7787L187.441 42.4933ZM188.719 38.68V37.072H187.719V38.68H188.719ZM187.802 36.7966C187.324 37.5212 186.697 38.0687 185.914 38.4455L186.348 39.3465C187.294 38.8913 188.059 38.2228 188.637 37.3474L187.802 36.7966ZM185.911 38.4471C185.138 38.8262 184.271 39.02 183.299 39.02V40.02C184.408 40.02 185.428 39.7978 186.352 39.3449L185.911 38.4471ZM183.299 39.02C182.19 39.02 181.191 38.7809 180.292 38.3092L179.827 39.1948C180.88 39.7471 182.041 40.02 183.299 40.02V39.02ZM180.3 38.3139C179.417 37.8278 178.721 37.1615 178.207 36.3097L177.351 36.8263C177.957 37.8305 178.782 38.6202 179.818 39.1901L180.3 38.3139ZM178.213 36.3183C177.716 35.4568 177.463 34.4802 177.463 33.376H176.463C176.463 34.6398 176.755 35.7912 177.346 36.8176L178.213 36.3183ZM177.463 33.376C177.463 32.2717 177.716 31.3046 178.211 30.4609L177.348 29.9551C176.755 30.9674 176.463 32.1123 176.463 33.376H177.463ZM178.207 30.4663C178.721 29.6159 179.414 28.9589 180.295 28.4892L179.824 27.6068C178.785 28.1611 177.958 28.9441 177.351 29.9497L178.207 30.4663ZM180.295 28.4892C181.175 28.0197 182.173 27.78 183.299 27.78V26.78C182.026 26.78 180.864 27.0523 179.824 27.6068L180.295 28.4892ZM183.299 27.78C184.302 27.78 185.193 27.9816 185.98 28.3752L186.427 27.4808C185.486 27.0104 184.44 26.78 183.299 26.78V27.78ZM185.98 28.3752C186.763 28.767 187.392 29.3301 187.872 30.0716L188.711 29.5284C188.135 28.6379 187.371 27.953 186.427 27.4808L185.98 28.3752ZM188.791 29.8V27.376H187.791V29.8H188.791ZM188.291 27.876H189.923V26.876H188.291V27.876ZM183.467 38.508C184.452 38.508 185.356 38.3001 186.171 37.8753L185.708 36.9887C185.05 37.3319 184.307 37.508 183.467 37.508V38.508ZM186.178 37.8713C186.993 37.4284 187.63 36.811 188.078 36.023L187.209 35.529C186.856 36.149 186.358 36.6356 185.701 36.9927L186.178 37.8713ZM188.074 36.0304C188.54 35.2421 188.767 34.3527 188.767 33.376H187.767C187.767 34.1913 187.579 34.9019 187.213 35.5216L188.074 36.0304ZM188.767 33.376C188.767 32.3995 188.54 31.516 188.071 30.7413L187.216 31.2587C187.579 31.86 187.767 32.5605 187.767 33.376H188.767ZM188.078 30.753C187.629 29.9632 186.99 29.352 186.171 28.9247L185.708 29.8113C186.361 30.152 186.857 30.6288 187.209 31.247L188.078 30.753ZM186.182 28.9309C185.379 28.4846 184.469 28.268 183.467 28.268V29.268C184.321 29.268 185.06 29.4514 185.697 29.8051L186.182 28.9309ZM183.467 28.268C182.483 28.268 181.578 28.4759 180.764 28.9007L181.227 29.7873C181.884 29.4441 182.628 29.268 183.467 29.268V28.268ZM180.76 28.9028C179.959 29.3301 179.323 29.9388 178.861 30.7216L179.722 31.2304C180.091 30.6052 180.592 30.1259 181.231 29.7852L180.76 28.9028ZM178.857 30.729C178.409 31.5161 178.191 32.4029 178.191 33.376H179.191C179.191 32.5571 179.373 31.8439 179.726 31.223L178.857 30.729ZM178.191 33.376C178.191 34.3491 178.409 35.2359 178.857 36.023L179.726 35.529C179.373 34.9081 179.191 34.1949 179.191 33.376H178.191ZM178.861 36.0304C179.322 36.8114 179.955 37.4263 180.753 37.8691L181.238 36.9949C180.595 36.6377 180.092 36.1486 179.722 35.5216L178.861 36.0304ZM180.764 37.8753C181.578 38.3001 182.483 38.508 183.467 38.508V37.508C182.628 37.508 181.884 37.3319 181.227 36.9887L180.764 37.8753ZM202.896 28.528L202.553 28.8913L202.557 28.8946L202.896 28.528ZM204.217 40V40.5H204.717V40H204.217ZM202.585 40H202.085V40.5H202.585V40ZM202.585 38.032H203.085V36.1881L202.153 37.7794L202.585 38.032ZM200.88 39.568L200.661 39.1189L200.657 39.1208L200.88 39.568ZM194.88 39.112L195.195 38.723L194.88 39.112ZM194.785 33.856L194.464 33.4725L194.46 33.4758L194.785 33.856ZM202.512 32.872V33.372H203.012V32.872H202.512ZM201.6 29.632L201.257 29.995L201.262 29.9998L201.6 29.632ZM196.633 29.176L196.797 29.6483L196.806 29.645L196.633 29.176ZM194.736 30.256L194.308 30.5144L194.617 31.0262L195.067 30.6316L194.736 30.256ZM193.969 28.984L193.645 28.603L193.321 28.8784L193.54 29.2424L193.969 28.984ZM196.273 27.736L196.426 28.2121L196.433 28.2095L196.273 27.736ZM200.977 38.128L201.242 38.5515L201.249 38.547L200.977 38.128ZM202.512 36.208L202.976 36.3952L203.012 36.3051V36.208H202.512ZM202.512 34.144H203.012V33.644H202.512V34.144ZM196.152 38.152L195.847 38.548L195.854 38.5534L196.152 38.152ZM199.105 27.78C200.672 27.78 201.795 28.1747 202.553 28.8913L203.24 28.1647C202.238 27.2173 200.833 26.78 199.105 26.78V27.78ZM202.557 28.8946C203.303 29.5865 203.717 30.6489 203.717 32.176H204.717C204.717 30.4711 204.25 29.1015 203.236 28.1614L202.557 28.8946ZM203.717 32.176V40H204.717V32.176H203.717ZM204.217 39.5H202.585V40.5H204.217V39.5ZM203.085 40V38.032H202.085V40H203.085ZM202.153 37.7794C201.824 38.342 201.334 38.7896 200.661 39.1189L201.1 40.0171C201.931 39.6104 202.577 39.034 203.016 38.2846L202.153 37.7794ZM200.657 39.1208C200.005 39.4466 199.205 39.62 198.24 39.62V40.62C199.324 40.62 200.284 40.4254 201.104 40.0152L200.657 39.1208ZM198.24 39.62C196.91 39.62 195.913 39.3032 195.195 38.723L194.566 39.501C195.512 40.2648 196.755 40.62 198.24 40.62V39.62ZM195.195 38.723C194.485 38.1494 194.133 37.4066 194.133 36.448H193.133C193.133 37.6974 193.612 38.7306 194.566 39.501L195.195 38.723ZM194.133 36.448C194.133 35.512 194.46 34.7907 195.109 34.2362L194.46 33.4758C193.573 34.2333 193.133 35.24 193.133 36.448H194.133ZM195.105 34.2395C195.757 33.6945 196.854 33.372 198.505 33.372V32.372C196.763 32.372 195.38 32.7055 194.464 33.4725L195.105 34.2395ZM198.505 33.372H202.512V32.372H198.505V33.372ZM203.012 32.872V32.104H202.012V32.872H203.012ZM203.012 32.104C203.012 30.9227 202.68 29.9464 201.939 29.2642L201.262 29.9998C201.737 30.4376 202.012 31.1093 202.012 32.104H203.012ZM201.944 29.269C201.212 28.5754 200.182 28.268 198.936 28.268V29.268C200.027 29.268 200.773 29.5366 201.257 29.995L201.944 29.269ZM198.936 28.268C198.079 28.268 197.252 28.4141 196.459 28.707L196.806 29.645C197.485 29.3939 198.194 29.268 198.936 29.268V28.268ZM196.468 28.7038C195.678 28.9787 194.988 29.3694 194.406 29.8804L195.067 30.6316C195.541 30.2146 196.115 29.8853 196.797 29.6482L196.468 28.7038ZM195.165 29.9976L194.397 28.7256L193.54 29.2424L194.308 30.5144L195.165 29.9976ZM194.292 29.365C194.876 28.8684 195.585 28.4823 196.426 28.212L196.119 27.26C195.168 27.5657 194.34 28.0116 193.645 28.603L194.292 29.365ZM196.433 28.2095C197.275 27.9239 198.164 27.78 199.105 27.78V26.78C198.061 26.78 197.062 26.9401 196.112 27.2625L196.433 28.2095ZM198.505 39.276C199.541 39.276 200.461 39.0419 201.242 38.5514L200.711 37.7046C200.116 38.0781 199.388 38.276 198.505 38.276V39.276ZM201.249 38.547C202.031 38.0379 202.605 37.313 202.976 36.3952L202.049 36.0208C201.747 36.767 201.298 37.3221 200.704 37.709L201.249 38.547ZM203.012 36.208V34.144H202.012V36.208H203.012ZM202.512 33.644H198.553V34.644H202.512V33.644ZM198.553 33.644C197.43 33.644 196.499 33.8366 195.837 34.2977C195.142 34.7816 194.812 35.5114 194.812 36.4H195.812C195.812 35.7846 196.023 35.3864 196.408 35.1183C196.826 34.8274 197.515 34.644 198.553 34.644V33.644ZM194.812 36.4C194.812 37.2836 195.159 38.0168 195.847 38.5479L196.458 37.7561C196.026 37.4232 195.812 36.9883 195.812 36.4H194.812ZM195.854 38.5534C196.531 39.0563 197.435 39.276 198.505 39.276V38.276C197.558 38.276 196.894 38.0797 196.451 37.7506L195.854 38.5534Z" fill="white"/>
</g>
</g>
<defs>
<filter id="filter0_d" x="60.236" y="21.692" width="148.48" height="31.584" filterUnits="userSpaceOnUse" color-interpolation-filters="sRGB">
<feFlood flood-opacity="0" result="BackgroundImageFix"/>
<feColorMatrix in="SourceAlpha" type="matrix" values="0 0 0 0 0 0 0 0 0 0 0 0 0 0 0 0 0 0 127 0"/>
<feOffset dy="4"/>
<feGaussianBlur stdDeviation="2"/>
<feColorMatrix type="matrix" values="0 0 0 0 0 0 0 0 0 0 0 0 0 0 0 0 0 0 0.25 0"/>
<feBlend mode="normal" in2="BackgroundImageFix" result="effect1_dropShadow"/>
<feBlend mode="normal" in="SourceGraphic" in2="effect1_dropShadow" result="shape"/>
</filter>
<clipPath id="clip0">
<rect width="224" height="60" fill="white"/>
</clipPath>
</defs>
</svg>
